M48
METRIC
T1C0.780
T2C0.800
T3C0.800
T4C0.900
T5C1.040
T6C3.200
%
G90
G05
T1
X123.56Y91.86
X123.56Y94.4
X123.56Y96.94
X123.56Y99.48
X123.56Y102.02
X123.56Y104.56
X123.56Y107.1
X123.56Y109.64
X131.5Y91.86
X131.5Y94.4
X131.5Y96.94
X131.5Y99.48
X131.5Y102.02
X131.5Y104.56
X131.5Y107.1
X131.5Y109.64
T2
X115.13Y124.7
X121.85Y119.2
X124.095Y124.75
X124.85Y119.2
X134.75Y127.75
X139.5Y127.75
X141.85Y127.95
X142.0Y76.35
X142.0Y82.25
X144.5Y76.35
X144.5Y82.15
X145.85Y127.95
X152.8Y74.75
X158.8Y74.75
X162.93Y116.95
X163.5Y81.25
X163.5Y87.75
X164.5Y79.75
X164.5Y84.25
X165.0Y90.75
X165.0Y96.2
X167.65Y112.22
X169.0Y63.25
X170.0Y99.25
X175.5Y63.25
X176.5Y99.25
T3
X116.84Y55.25
X116.92Y59.75
X116.92Y64.25
X116.92Y68.75
X117.5Y132.75
X117.53Y103.25
X117.53Y105.25
X117.53Y107.25
X117.53Y109.25
X117.53Y111.25
X118.58Y117.25
X118.58Y119.25
X118.58Y121.25
X119.5Y132.75
X125.0Y132.75
X126.53Y86.75
X127.0Y55.25
X127.0Y132.75
X127.08Y59.75
X127.08Y64.25
X127.08Y68.75
X129.0Y132.75
X129.03Y86.75
X130.5Y65.25
X131.0Y56.2
X133.0Y56.2
X133.0Y65.25
X134.5Y132.75
X136.5Y132.75
X138.5Y132.75
X139.61Y55.91
X139.61Y68.61
X142.15Y55.91
X142.15Y68.61
X144.0Y132.8
X144.69Y55.91
X144.69Y68.61
X146.0Y132.8
X147.23Y55.91
X147.23Y68.61
X148.0Y132.8
X149.77Y55.91
X149.77Y68.61
X152.31Y55.91
X152.31Y68.61
X153.5Y132.8
X154.85Y55.91
X154.85Y68.61
X155.5Y132.8
X157.39Y55.91
X157.39Y68.61
X157.5Y132.8
X163.0Y56.2
X163.0Y132.8
X165.0Y56.2
X165.0Y132.8
X167.0Y56.2
X167.0Y132.8
X168.38Y67.17
X168.38Y69.71
X168.38Y72.25
X168.38Y74.79
X168.38Y77.33
X168.38Y79.87
X168.38Y82.41
X168.38Y84.95
X169.0Y56.2
X169.0Y94.7
X169.68Y101.25
X169.68Y103.79
X169.68Y106.33
X169.68Y108.87
X169.68Y111.41
X169.68Y113.95
X169.68Y116.49
X169.68Y119.03
X171.0Y94.7
X173.0Y131.75
X174.5Y56.2
X175.0Y131.75
X176.0Y67.17
X176.0Y69.71
X176.0Y72.25
X176.0Y74.79
X176.0Y77.33
X176.0Y79.87
X176.0Y82.41
X176.0Y84.95
X176.0Y94.7
X176.5Y56.2
X177.3Y101.25
X177.3Y103.79
X177.3Y106.33
X177.3Y108.87
X177.3Y111.41
X177.3Y113.95
X177.3Y116.49
X177.3Y119.03
X178.0Y94.7
T4
X117.775Y75.28
X117.775Y82.75
X117.775Y90.22
X117.775Y97.69
X120.315Y75.28
X120.315Y82.75
X120.315Y90.22
X120.315Y97.69
T5
X134.773Y79.27
X134.773Y81.81
X134.773Y84.35
X134.773Y86.89
X134.773Y89.43
X134.773Y91.97
X134.773Y94.51
X134.773Y97.05
X134.773Y99.59
X134.773Y102.13
X134.773Y104.67
X134.773Y107.21
X134.773Y109.75
X134.773Y112.29
X134.773Y114.83
X134.773Y117.37
X134.773Y119.91
X134.773Y122.45
X134.773Y124.99
X160.172Y79.27
X160.172Y81.81
X160.172Y84.35
X160.172Y86.89
X160.172Y89.43
X160.172Y91.97
X160.172Y94.51
X160.172Y97.05
X160.172Y99.59
X160.172Y102.13
X160.172Y104.67
X160.172Y107.21
X160.172Y109.75
X160.172Y112.29
X160.172Y114.83
X160.172Y117.37
X160.172Y119.91
X160.172Y122.45
X160.172Y124.99
T6
X129.5Y73.75
X129.5Y118.75
X181.0Y62.0
X181.0Y127.75
M30
